<?xml version="1.0" encoding="UTF-8" standalone="no"?>
<svg
   version="1.0"
   width="300"
   height="342"
   viewBox="0 0 225 256.49999"
   preserveAspectRatio="xMidYMid meet"
   id="svg77"
   sodipodi:docname="2.svg"
   inkscape:version="1.1 (c68e22c387, 2021-05-23)"
   xmlns:inkscape="http://www.inkscape.org/namespaces/inkscape"
   xmlns:sodipodi="http://sodipodi.sourceforge.net/DTD/sodipodi-0.dtd"
   xmlns="http://www.w3.org/2000/svg"
   xmlns:svg="http://www.w3.org/2000/svg">
  <defs
     id="defs81" />
  <sodipodi:namedview
     id="namedview79"
     pagecolor="#ffffff"
     bordercolor="#666666"
     borderopacity="1.0"
     inkscape:pageshadow="2"
     inkscape:pageopacity="0.0"
     inkscape:pagecheckerboard="0"
     inkscape:document-units="px"
     showgrid="false"
     units="px"
     inkscape:showpageshadow="false"
     inkscape:zoom="1.4462011"
     inkscape:cx="283.8471"
     inkscape:cy="175.28682"
     inkscape:window-width="1366"
     inkscape:window-height="705"
     inkscape:window-x="-8"
     inkscape:window-y="-8"
     inkscape:window-maximized="1"
     inkscape:current-layer="svg77" />
  <metadata
     id="metadata9">
Created by potrace 1.16, written by Peter Selinger 2001-2019
</metadata>
  <g
     transform="matrix(0.01229191,0,0,-0.01191488,-2.2394224,262.80662)"
     fill="#000000"
     stroke="none"
     id="g75"
     style="fill:#000080;stroke-width:8.26315">
    <path
       d="m 6897,21662 c -119,-119 -217,-222 -217,-227 0,-6 497,-507 1105,-1115 l 1105,-1105 223,223 222,222 220,-220 220,-220 1110,1110 1110,1110 -223,222 -222,223 -1108,-1108 -1107,-1107 -1105,1105 c -608,608 -1107,1105 -1110,1105 -3,0 -103,-98 -223,-218 z"
       id="path11"
       style="fill:#000080;stroke-width:8.26315" />
    <path
       d="m 6005,20770 -220,-220 1105,-1105 c 608,-608 1110,-1105 1115,-1105 13,0 435,422 435,435 0,10 -2200,2215 -2210,2215 -3,0 -104,-99 -225,-220 z"
       id="path13"
       style="fill:#000080;stroke-width:8.26315" />
    <path
       d="m 11327,19882 -1107,-1107 218,-218 c 119,-119 222,-217 227,-217 6,0 507,497 1115,1105 l 1105,1105 -220,220 c -121,121 -222,220 -225,220 -3,0 -503,-498 -1113,-1108 z"
       id="path15"
       style="fill:#000080;stroke-width:8.26315" />
    <path
       d="m 5122,19888 -222,-223 1107,-1107 1108,-1108 -223,-222 -222,-223 1110,-1110 1110,-1110 -220,-220 -220,-220 -1110,1110 -1110,1110 -222,-223 -223,-222 1110,-1110 1110,-1110 -223,-222 -222,-223 -1110,1110 -1110,1110 -220,-220 -220,-220 -1108,1108 -1107,1107 -223,-223 -222,-222 1110,-1110 1110,-1110 215,215 c 117,118 218,216 222,217 4,2 505,-494 1113,-1102 l 1105,-1105 -1107,-1107 -1108,-1108 -223,223 -222,222 -1110,-1110 -1110,-1110 223,-222 222,-223 1110,1110 1110,1110 222,-223 223,-222 1107,1107 1108,1108 220,-220 220,-220 -1107,-1107 -1108,-1108 223,-222 222,-223 1108,1108 1107,1107 220,-220 220,-220 -1103,-1103 C 7176,9531 6680,9030 6680,9025 c 0,-6 99,-109 220,-230 l 220,-220 1108,1108 1107,1107 1108,-1107 1107,-1108 222,223 223,222 -1108,1108 -1107,1107 222,223 223,222 1107,-1107 1108,-1108 222,223 223,222 -1108,1108 -1107,1107 220,220 220,220 1108,-1108 1107,-1107 223,222 222,223 1108,-1108 1107,-1107 223,223 222,222 -1110,1110 -1110,1110 -223,-223 -222,-222 -1105,1105 -1105,1105 1107,1107 1108,1108 220,-220 220,-220 1110,1110 1110,1110 -222,222 -223,223 -1107,-1107 -1108,-1108 -218,218 c -119,119 -222,217 -227,217 -6,0 -507,-497 -1115,-1105 l -1105,-1105 -220,220 -220,220 1110,1110 1110,1110 -223,222 -222,223 -1110,-1110 -1110,-1110 -220,220 -220,220 1105,1105 c 608,608 1105,1109 1105,1115 0,5 -98,108 -217,227 l -218,218 1108,1108 1107,1107 -223,223 -222,222 -1110,-1110 -1110,-1110 223,-222 222,-223 -1107,-1107 -1108,-1108 -1107,1107 -1108,1108 222,222 223,223 -1110,1110 -1110,1110 z m 4433,-6208 -220,-220 -220,220 -220,220 220,220 220,220 220,-220 220,-220 z m -882,-448 217,-217 -223,-223 -222,-222 -220,220 -220,220 220,220 c 121,121 222,220 225,220 3,0 103,-98 223,-218 z m 1770,0 217,-217 -220,-220 -220,-220 -220,220 -220,220 217,217 c 120,120 220,218 223,218 3,0 103,-98 223,-218 z m -890,-1324 -223,-223 -220,220 -220,220 222,222 223,223 220,-220 220,-220 z"
       id="path17"
       style="fill:#000080;stroke-width:8.26315" />
    <path
       d="m 1572,16337 -222,-222 1110,-1110 1110,-1110 222,223 223,222 -1110,1110 -1110,1110 z"
       id="path19"
       style="fill:#000080;stroke-width:8.26315" />
    <path
       d="m 15762,15457 c -606,-606 -1102,-1107 -1102,-1112 0,-6 99,-109 220,-230 l 220,-220 1105,1105 c 608,608 1105,1110 1105,1115 0,10 -430,445 -440,445 -3,0 -501,-496 -1108,-1103 z"
       id="path21"
       style="fill:#000080;stroke-width:8.26315" />
    <path
       d="M 685,15450 465,15230 1573,14122 2680,13015 1575,11910 C 967,11302 470,10800 470,10795 c 0,-13 422,-435 435,-435 6,0 507,497 1115,1105 l 1105,1105 -220,220 -220,220 218,218 c 119,119 217,222 217,227 0,10 -2200,2215 -2210,2215 -3,0 -104,-99 -225,-220 z"
       id="path23"
       style="fill:#000080;stroke-width:8.26315" />
    <path
       d="m 16647,14562 -1107,-1107 220,-220 220,-220 -222,-222 -223,-223 1105,-1105 c 608,-608 1110,-1105 1115,-1105 6,0 109,99 230,220 l 220,220 -1108,1108 -1107,1107 1107,1107 1108,1108 -220,220 c -121,121 -222,220 -225,220 -3,0 -503,-498 -1113,-1108 z"
       id="path25"
       style="fill:#000080;stroke-width:8.26315" />
    <path
       d="M 2457,11012 1350,9905 1568,9687 c 119,-119 222,-217 227,-217 6,0 507,497 1115,1105 l 1105,1105 -220,220 c -121,121 -222,220 -225,220 -3,0 -503,-498 -1113,-1108 z"
       id="path27"
       style="fill:#000080;stroke-width:8.26315" />
    <path
       d="m 14872,11907 c -116,-117 -212,-217 -212,-222 0,-6 497,-507 1105,-1115 l 1105,-1105 222,223 223,222 -1105,1105 c -608,608 -1110,1105 -1115,1105 -6,0 -106,-96 -223,-213 z"
       id="path29"
       style="fill:#000080;stroke-width:8.26315" />
    <path
       d="m 8432,8565 c -88,-20 -149,-51 -203,-105 -59,-59 -80,-117 -86,-247 l -6,-103 h -213 -214 v -515 c 0,-457 -2,-515 -15,-515 -26,0 -88,-36 -120,-70 l -30,-31 50,-44 50,-43 25,23 c 63,58 125,62 176,11 28,-28 34,-41 34,-77 0,-109 -100,-164 -242,-134 -84,18 -214,117 -281,215 l -17,24 -50,-49 c -27,-27 -50,-55 -50,-62 0,-21 133,-147 195,-185 92,-56 175,-80 275,-81 142,-1 241,49 293,147 31,58 31,183 0,242 -25,47 -65,84 -112,103 l -31,13 v 454 454 h 140 140 l 2,-467 3,-468 73,-3 72,-3 v 471 470 h 430 430 v -210 c 0,-185 -2,-216 -20,-263 -36,-97 -116,-151 -220,-151 -77,0 -122,20 -150,67 -25,40 -26,116 -4,163 27,56 74,78 181,82 l 93,4 v 64 64 h -290 -290 v -65 -65 h 104 105 l -34,-50 c -93,-139 -22,-332 144,-388 50,-17 180,-15 240,5 29,9 72,34 96,55 l 44,39 3,-143 3,-143 73,-3 72,-3 v 471 470 h 365 365 v -105 -105 h -144 c -160,0 -202,-10 -266,-60 -112,-88 -132,-308 -44,-483 33,-65 98,-152 135,-177 l 27,-20 55,46 54,46 -47,47 c -91,91 -137,205 -127,315 6,62 23,95 71,130 24,18 45,21 157,24 l 129,4 v -302 -301 l 73,3 72,3 3,468 2,467 h 140 140 v -470 -471 l 73,3 72,3 3,468 2,467 h 90 90 v 60 60 H 9540 8290 v 88 c 0,73 4,96 23,132 47,89 180,129 363,110 177,-18 331,-85 455,-197 l 37,-33 42,50 43,51 -44,40 c -94,87 -240,164 -377,200 -102,27 -311,35 -400,14 z"
       id="path31"
       style="fill:#000080;stroke-width:8.26315" />
    <path
       d="m 14198,8541 c -36,-9 -69,-19 -72,-22 -9,-8 191,-244 278,-328 42,-40 76,-75 76,-77 0,-2 -675,-4 -1500,-4 h -1500 v -60 -60 h 195 195 v -166 c 0,-91 -4,-173 -10,-183 -14,-26 -64,-44 -103,-37 -19,3 -52,22 -74,41 l -40,34 -49,-41 c -27,-22 -49,-46 -48,-52 1,-16 394,-546 405,-546 5,0 34,16 64,36 l 54,36 -62,85 c -34,47 -96,129 -138,183 l -76,98 48,5 c 26,3 62,13 80,22 30,16 36,16 93,-1 44,-13 93,-18 174,-17 h 112 v -218 -219 h 70 70 l 2,468 3,467 163,3 162,2 v -184 -185 l -41,-33 c -39,-32 -41,-35 -35,-77 7,-49 44,-134 74,-168 17,-19 30,-23 81,-23 h 61 v 85 86 l 148,-3 147,-3 3,-217 2,-218 h 70 70 v 470 471 l 143,-3 142,-3 3,-467 2,-468 h 70 70 l 2,468 3,467 h 355 355 v -230 c 0,-221 -1,-232 -24,-278 -34,-70 -79,-100 -155,-105 -51,-3 -66,0 -95,20 -78,53 -102,139 -61,222 30,62 78,91 153,91 h 58 l -3,65 -3,65 -64,3 c -96,5 -164,-21 -227,-83 -68,-67 -88,-127 -82,-240 4,-68 9,-91 35,-136 36,-65 96,-113 165,-134 97,-28 174,-17 257,40 l 51,34 v -135 -134 h 70 70 l 2,468 3,467 88,3 87,3 v 59 60 h -94 -94 l -172,223 c -95,122 -177,223 -184,223 -6,1 -41,-6 -78,-15 z m -1900,-727 c 2,-157 1,-172 -15,-179 -31,-12 -148,-18 -207,-11 l -56,7 v 180 180 l 138,-3 137,-3 z m 910,-6 -3,-183 h -145 -145 l -3,183 -2,182 h 150 150 z"
       id="path33"
       style="fill:#000080;stroke-width:8.26315" />
    <path
       d="m 4135,8536 c -90,-39 -139,-117 -139,-221 -1,-75 16,-123 60,-170 13,-14 24,-28 24,-31 0,-2 -812,-4 -1805,-4 H 470 v -60 -60 h 265 265 V 7850 7710 H 804 608 l -49,-41 c -55,-46 -59,-62 -34,-148 11,-34 30,-67 59,-96 l 43,-45 41,18 41,17 3,80 3,80 h 140 140 l 3,-262 2,-263 h 70 70 l 2,468 3,467 358,3 357,2 v -213 c 0,-235 -9,-291 -57,-348 -66,-78 -201,-80 -262,-4 -100,128 8,309 166,279 32,-6 35,-5 30,10 -4,10 -7,43 -7,73 v 55 l -87,-4 c -94,-5 -140,-22 -202,-74 -108,-91 -121,-303 -26,-426 88,-117 283,-142 401,-52 l 44,34 v -135 -135 h 70 70 l 2,468 3,467 247,3 248,2 v -165 c 0,-92 -4,-174 -10,-184 -14,-26 -64,-44 -103,-37 -19,3 -52,22 -75,41 l -40,35 -49,-42 c -26,-23 -48,-47 -47,-53 2,-16 394,-545 404,-545 5,0 33,17 63,37 l 53,38 -108,145 c -59,80 -121,161 -138,181 l -30,36 50,6 c 27,3 63,13 81,22 30,16 36,16 93,-1 44,-13 93,-18 174,-17 h 112 v -218 -219 h 70 70 l 2,468 3,467 h 505 505 v -100 -100 l -195,-3 -195,-2 -28,-49 c -15,-27 -27,-55 -27,-62 1,-8 20,-27 45,-42 86,-54 110,-165 49,-228 -57,-60 -145,-47 -218,31 -64,69 -102,163 -121,302 l -6,48 -70,-35 c -65,-33 -69,-37 -63,-63 53,-234 130,-359 260,-423 134,-66 292,-33 358,75 53,85 48,217 -11,286 l -25,30 h 126 126 v -300 -300 h 70 70 v 470 470 h 335 335 v -140 -140 h -196 -196 l -49,-41 c -55,-46 -59,-62 -34,-148 11,-34 30,-67 59,-96 l 43,-45 41,18 41,17 3,80 3,80 h 140 140 l 3,-262 2,-263 h 70 70 l 2,468 3,467 163,3 162,2 v -184 -185 l -41,-33 c -39,-32 -41,-35 -35,-76 7,-55 35,-118 70,-159 26,-30 33,-33 87,-33 h 59 v 85 86 l 148,-3 147,-3 3,-217 2,-218 h 70 70 l 2,468 3,467 88,3 87,3 v 59 60 h -938 -939 l -40,29 c -47,34 -83,101 -83,155 0,99 88,152 184,112 l 33,-14 18,52 c 10,28 20,56 22,62 13,36 -186,59 -252,30 z M 2928,7814 c 2,-157 1,-172 -15,-179 -31,-12 -148,-18 -207,-11 l -56,7 v 180 180 l 138,-3 137,-3 z m 2880,-6 -3,-183 h -145 -145 l -3,183 -2,182 h 150 150 z"
       id="path35"
       style="fill:#000080;stroke-width:8.26315" />
    <path
       d="m 7171,8118 c -46,-13 -97,-49 -127,-89 -78,-106 -47,-272 62,-324 l 37,-18 43,49 42,49 -24,13 c -48,26 -67,97 -39,151 27,53 120,66 168,24 55,-49 74,-171 38,-248 -59,-127 -198,-171 -386,-120 -16,4 -29,-8 -62,-54 l -42,-60 47,-36 c 26,-21 133,-125 238,-233 l 192,-196 38,27 c 22,15 50,36 64,47 l 25,19 -100,101 c -55,56 -136,132 -180,168 l -79,67 64,6 c 225,20 362,173 347,389 -6,92 -36,159 -96,213 -64,58 -179,82 -270,55 z"
       id="path37"
       style="fill:#000080;stroke-width:8.26315" />
    <path
       d="m 15100,8121 c -120,-39 -193,-150 -175,-263 11,-65 49,-125 98,-149 l 42,-22 42,49 43,48 -27,17 c -34,23 -52,56 -53,98 0,25 9,42 35,68 33,33 39,35 81,30 80,-9 124,-71 124,-175 0,-161 -140,-264 -320,-233 -36,6 -74,13 -85,16 -15,4 -28,-7 -57,-49 -21,-30 -38,-58 -38,-63 0,-5 24,-28 54,-51 30,-24 136,-126 236,-228 l 183,-185 54,37 c 29,20 56,41 60,46 7,12 -184,206 -281,286 l -69,57 69,6 c 143,14 256,85 311,197 25,51 28,67 28,162 0,90 -3,112 -24,153 -48,98 -125,148 -236,153 -38,2 -81,0 -95,-5 z"
       id="path39"
       style="fill:#000080;stroke-width:8.26315" />
    <path
       d="m 15632,7583 3,-528 73,-3 72,-3 v 471 470 h 600 600 v -222 c 0,-126 -5,-240 -11,-261 -12,-46 -68,-110 -109,-127 -44,-18 -130,-8 -170,20 -82,58 -84,206 -4,269 35,28 99,44 141,36 37,-7 37,-7 26,83 l -6,54 -81,-4 c -63,-2 -93,-9 -137,-30 -55,-27 -59,-28 -241,-28 -178,0 -186,-1 -236,-26 -56,-28 -90,-63 -125,-128 -19,-36 -22,-56 -21,-156 0,-101 3,-124 27,-184 30,-76 99,-179 147,-220 35,-29 35,-29 104,32 l 37,33 -52,57 c -29,31 -66,86 -83,122 -27,57 -31,76 -31,152 0,72 4,91 21,114 45,61 65,69 195,72 l 120,4 -8,-29 c -4,-15 -8,-60 -7,-99 1,-164 129,-294 289,-294 62,0 141,27 180,61 l 35,31 v -136 -137 l 73,3 72,3 3,468 2,467 h 160 160 v -187 -188 l -41,-30 c -38,-28 -40,-32 -34,-70 8,-51 50,-143 77,-172 18,-19 32,-23 79,-23 h 58 l 3,83 3,82 148,3 147,3 v -221 -221 l 73,3 72,3 3,468 2,467 h 80 80 v 60 60 h -1285 -1285 z m 2258,222 v -186 l -147,3 -148,3 -3,170 c -1,93 0,175 2,182 4,10 41,13 151,13 h 145 z"
       id="path41"
       style="fill:#000080;stroke-width:8.26315" />
    <path
       d="m 6250,7550 v -70 h 225 225 v 70 70 h -225 -225 z"
       id="path43"
       style="fill:#000080;stroke-width:8.26315" />
    <path
       d="m 10900,7550 v -70 h 225 225 v 70 70 h -225 -225 z"
       id="path45"
       style="fill:#000080;stroke-width:8.26315" />
    <path
       d="m 5880,6929 c -24,-11 -46,-22 -48,-24 -2,-2 33,-58 79,-124 l 83,-121 h 93 c 51,0 93,3 93,6 0,13 -234,284 -244,283 -6,0 -31,-9 -56,-20 z"
       id="path47"
       style="fill:#000080;stroke-width:8.26315" />
    <path
       d="m 17957,6927 c -26,-11 -46,-24 -45,-27 2,-3 39,-58 83,-123 l 80,-116 99,-1 c 93,0 98,1 84,18 -8,9 -63,74 -122,145 -59,70 -113,127 -119,126 -7,-1 -33,-10 -60,-22 z"
       id="path49"
       style="fill:#000080;stroke-width:8.26315" />
    <path
       d="m 490,5990 v -300 h 495 495 V 4695 3700 H 985 490 v -300 -300 h 1755 1755 v 300 300 l -497,2 -498,3 -3,992 -2,993 497,2 498,3 3,298 2,297 H 2245 490 Z"
       id="path51"
       style="fill:#000080;stroke-width:8.26315" />
    <path
       d="m 4702,5993 3,-298 491,-3 492,-2 6,-763 c 4,-419 6,-865 4,-992 l -3,-230 -497,-3 -498,-2 v -300 -300 h 1755 1755 v 300 300 l -492,2 -493,3 -3,993 -2,992 h 495 495 v 300 300 H 6455 4700 Z"
       id="path53"
       style="fill:#000080;stroke-width:8.26315" />
    <path
       d="m 8920,5990 v -300 h 493 494 l 6,-987 c 3,-542 4,-990 1,-995 -3,-4 -228,-8 -500,-8 h -494 v -300 -300 h 1440 1440 v 300 300 h -490 -490 v 900 c 0,495 2,900 4,900 3,0 458,-540 1011,-1200 l 1008,-1200 421,1 h 421 l 1010,1206 1010,1205 3,-244 c 2,-134 0,-541 -4,-905 l -6,-663 h -484 -484 v -295 -295 h 1745 1745 v 295 295 h -495 -495 v 995 995 h 495 495 v 300 300 h -1503 -1503 l -775,-862 c -427,-475 -789,-878 -805,-896 l -29,-33 -795,895 -795,895 h -1547 l -1548,1 z"
       id="path55"
       style="fill:#000080;stroke-width:8.26315" />
    <path
       d="m 956,2500 c -202,-51 -336,-165 -381,-324 -13,-45 -16,-84 -13,-161 4,-88 9,-111 36,-169 74,-158 173,-233 485,-370 240,-104 311,-157 337,-251 16,-58 -1,-130 -41,-174 -106,-116 -417,-133 -702,-37 -40,13 -72,23 -73,23 0,-1 -24,-60 -52,-130 l -51,-129 64,-29 c 175,-79 455,-110 685,-74 305,46 487,200 522,443 27,187 -37,339 -198,468 -64,51 -151,97 -444,237 -162,77 -230,146 -230,232 0,181 253,236 608,133 40,-12 74,-19 75,-17 8,9 98,242 95,244 -12,11 -147,60 -213,77 -122,31 -401,35 -509,8 z"
       id="path57"
       style="fill:#000080;stroke-width:8.26315" />
    <path
       d="m 2465,1604 c -192,-493 -352,-900 -353,-905 -2,-6 69,-8 173,-7 l 178,3 82,215 c 45,118 94,248 109,288 l 28,72 326,-2 327,-3 52,-155 c 29,-85 74,-215 99,-287 l 46,-133 h 179 c 99,0 179,4 179,9 0,8 -545,1588 -602,1744 l -21,57 h -226 -226 z m 674,296 c 56,-190 101,-351 101,-357 0,-10 -51,-13 -223,-13 -123,0 -226,3 -230,6 -3,3 49,167 116,365 67,197 125,355 128,351 4,-4 52,-162 108,-352 z"
       id="path59"
       style="fill:#000080;stroke-width:8.26315" />
    <path
       d="M 4360,1595 V 690 h 171 171 l -5,613 c -2,336 -8,623 -12,637 -4,14 -4,22 0,18 4,-4 103,-290 220,-635 l 213,-628 h 212 213 l 243,624 c 134,343 244,625 246,626 2,2 2,-280 0,-626 l -3,-629 h 175 176 v 905 905 l -216,-2 -216,-3 -301,-752 c -166,-414 -304,-753 -307,-753 -3,0 -125,339 -271,753 l -266,752 -221,3 -222,2 z"
       id="path61"
       style="fill:#000080;stroke-width:8.26315" />
    <path
       d="M 7030,1594 V 689 l 438,3 c 411,4 442,6 515,26 246,68 368,201 398,433 27,214 -68,389 -262,482 l -71,35 47,33 c 121,87 174,222 154,394 -22,187 -144,317 -345,370 -108,28 -218,35 -546,35 h -328 z m 715,611 c 113,-39 159,-107 159,-235 0,-57 -5,-85 -22,-117 -48,-92 -111,-113 -339,-113 h -163 v 238 c 0,131 3,242 8,246 14,15 304,0 357,-19 z m 65,-735 c 154,-34 222,-111 222,-251 0,-107 -52,-183 -151,-220 -67,-25 -236,-41 -386,-37 l -110,3 -3,250 c -1,137 0,256 3,264 5,11 37,13 188,8 100,-3 207,-11 237,-17 z"
       id="path63"
       style="fill:#000080;stroke-width:8.26315" />
    <path
       d="m 9075,1604 c -193,-493 -352,-900 -353,-905 -2,-6 67,-8 173,-7 l 178,3 74,195 c 41,107 90,237 110,288 l 35,92 327,-2 326,-3 62,-185 c 35,-102 79,-231 99,-287 l 36,-103 h 179 c 98,0 179,4 179,9 0,7 -508,1478 -597,1729 l -26,72 h -226 -226 z m 674,296 c 56,-190 101,-351 101,-357 0,-10 -51,-13 -223,-13 -123,0 -226,3 -229,6 -4,3 48,167 114,365 67,198 124,356 128,352 4,-4 53,-163 109,-353 z"
       id="path65"
       style="fill:#000080;stroke-width:8.26315" />
    <path
       d="M 10970,1595 V 690 h 565 565 v 140 140 h -395 -395 v 765 765 h -170 -170 z"
       id="path67"
       style="fill:#000080;stroke-width:8.26315" />
    <path
       d="M 12560,1596 V 690 h 175 175 v 766 766 l 188,-4 187,-3 68,-33 c 113,-56 157,-141 158,-303 0,-112 -24,-178 -88,-241 -58,-57 -114,-83 -210,-100 l -73,-12 v -134 -135 l 84,6 c 46,4 123,18 170,32 247,71 398,212 462,430 23,78 23,245 0,335 -53,209 -207,359 -426,416 -54,14 -131,18 -467,21 l -403,5 z"
       id="path69"
       style="fill:#000080;stroke-width:8.26315" />
    <path
       d="m 14340,1886 c 0,-486 3,-630 14,-688 67,-347 338,-537 771,-539 221,-1 369,40 513,141 91,64 143,126 198,235 81,163 84,187 84,873 v 592 h -170 -170 v -564 c 0,-455 -3,-579 -15,-641 -45,-235 -182,-345 -430,-345 -97,0 -181,17 -246,50 -94,48 -168,162 -188,290 -7,39 -11,291 -11,638 v 572 h -175 -175 z"
       id="path71"
       style="fill:#000080;stroke-width:8.26315" />
    <path
       d="M 16560,1596 V 690 h 175 175 v 765 765 h 170 c 236,0 316,-20 378,-96 40,-48 57,-112 57,-209 0,-68 -5,-89 -29,-138 -46,-95 -144,-152 -283,-164 l -63,-6 v -128 -129 h 39 40 l 143,-187 c 160,-211 229,-284 341,-361 135,-93 318,-162 433,-162 h 41 l 37,131 c 21,72 36,132 34,133 -1,1 -36,12 -76,25 -111,34 -244,105 -308,164 -32,29 -111,118 -176,199 l -118,147 32,17 c 112,56 217,184 253,305 29,95 27,280 -4,369 -46,133 -122,222 -241,284 -142,75 -174,79 -637,84 l -413,4 z"
       id="path73"
       style="fill:#000080;stroke-width:8.26315" />
  </g>
</svg>
